<?xml version="1.0" encoding="utf-8"?>
<svg width="128" height="128" viewBox="0 0 128 128" xmlns="http://www.w3.org/2000/svg">
  <defs>
    <linearGradient id="pageGradient" x1="0%" y1="0%" x2="0%" y2="100%">
      <stop offset="0" style="stop-color:#ffffff;stop-opacity:1"/>
      <stop offset="1" style="stop-color:#f5f5f5;stop-opacity:1"/>
    </linearGradient>
    <filter id="shadow" x="-50%" y="-50%" width="200%" height="200%">
      <feGaussianBlur in="SourceAlpha" stdDeviation="3"/>
      <feOffset dx="0" dy="4" result="offsetblur"/>
      <feComponentTransfer>
        <feFuncA type="linear" slope="0.3"/>
      </feComponentTransfer>
      <feMerge>
        <feMergeNode/>
        <feMergeNode in="SourceGraphic"/>
      </feMerge>
    </filter>
  </defs>
  <rect x="16" y="16" width="96" height="96" rx="20" ry="20" fill="url(#pageGradient)" stroke="#d0d0d0" stroke-width="1.5" filter="url(#shadow)"/>
  <rect x="16" y="16" width="96" height="28" rx="20" ry="20" style="fill: rgb(94, 214, 207);"/>
  <rect x="16" y="32" width="96" height="12" style="fill: rgb(94, 214, 207);"/>
  <circle cx="38" cy="20" r="3.5" fill="none" stroke="#ffffff" stroke-width="2"/>
  <circle cx="64" cy="20" r="3.5" fill="none" stroke="#ffffff" stroke-width="2"/>
  <circle cx="90" cy="20" r="3.5" fill="none" stroke="#ffffff" stroke-width="2"/>
  <text style="fill: rgb(51, 51, 51); font-family: FreeSans; font-size: 42px; font-weight: 300; text-anchor: middle; white-space: pre;" x="64" y="78.682">28</text>
  <g opacity="0.15">
    <circle cx="35" cy="92" r="1.5" fill="#333333"/>
    <circle cx="50" cy="92" r="1.5" fill="#333333"/>
    <circle cx="64" cy="92" r="1.5" fill="#333333"/>
    <circle cx="78" cy="92" r="1.5" fill="#333333"/>
    <circle cx="93" cy="92" r="1.5" fill="#333333"/>
    <circle cx="35" cy="102" r="1.5" fill="#333333"/>
    <circle cx="50" cy="102" r="1.5" fill="#333333"/>
    <circle cx="64" cy="102" r="1.5" fill="#333333"/>
    <circle cx="78" cy="102" r="1.5" fill="#333333"/>
    <circle cx="93" cy="102" r="1.5" fill="#333333"/>
  </g>
  <text style="white-space: pre; fill: rgb(51, 51, 51); font-family: Arial, sans-serif; font-size: 28px;" x="140.056" y="66.108"> </text>
</svg>