<?xml version="1.0" encoding="utf-8"?>
<svg width="128" height="128" viewBox="0 0 128 128" fill="none" xmlns="http://www.w3.org/2000/svg">
  <path d="M12 20C12 15.5817 15.5817 12 20 12H108C112.418 12 116 15.5817 116 20V108C116 112.418 112.418 116 108 116H20C15.5817 116 12 112.418 12 108V20Z" fill="url(#paint0_linear_1928_409)"/>
  <path d="M 14.104 19.713 C 14.104 16.876 16.135 14.576 18.641 14.576 L 109.361 14.576 C 111.866 14.576 113.897 16.876 113.897 19.713 L 113.897 35.119 C 113.897 37.955 111.866 40.253 109.361 40.253 L 18.641 40.253 C 16.135 40.253 14.104 37.955 14.104 35.119 L 14.104 19.713 Z" style="fill: url(&quot;#gradient-1&quot;);"/>
  <path d="M 17.814 85.536 C 17.814 83.609 17.997 82.049 18.222 82.049 L 29.376 82.049 C 29.6 82.049 29.784 83.609 29.784 85.536 L 29.784 87.861 C 29.784 89.787 29.6 91.349 29.376 91.349 L 18.222 91.349 C 17.997 91.349 17.814 89.787 17.814 87.861 L 17.814 85.536 Z" fill="#485F84" style="stroke-width: 1;"/>
  <path d="M 17.814 101.103 C 17.814 99.177 17.997 97.615 18.222 97.615 L 29.376 97.615 C 29.6 97.615 29.784 99.177 29.784 101.103 L 29.784 103.428 C 29.784 105.353 29.6 106.915 29.376 106.915 L 18.222 106.915 C 17.997 106.915 17.814 105.353 17.814 103.428 L 17.814 101.103 Z" fill="#485F84" style="stroke-width: 1;"/>
  <path d="M 38.072 85.536 C 38.072 83.609 38.255 82.049 38.479 82.049 L 49.634 82.049 C 49.858 82.049 50.041 83.609 50.041 85.536 L 50.041 87.861 C 50.041 89.787 49.858 91.349 49.634 91.349 L 38.479 91.349 C 38.255 91.349 38.072 89.787 38.072 87.861 L 38.072 85.536 Z" fill="#485F84" style="stroke-width: 1;"/>
  <path d="M 38.072 101.103 C 38.072 99.177 38.255 97.615 38.479 97.615 L 49.634 97.615 C 49.858 97.615 50.041 99.177 50.041 101.103 L 50.041 103.428 C 50.041 105.353 49.858 106.915 49.634 106.915 L 38.479 106.915 C 38.255 106.915 38.072 105.353 38.072 103.428 L 38.072 101.103 Z" fill="#485F84" style="stroke-width: 1;"/>
  <path d="M 58.329 85.536 C 58.329 83.609 58.512 82.049 58.737 82.049 L 69.891 82.049 C 70.116 82.049 70.299 83.609 70.299 85.536 L 70.299 87.861 C 70.299 89.787 70.116 91.349 69.891 91.349 L 58.737 91.349 C 58.512 91.349 58.329 89.787 58.329 87.861 L 58.329 85.536 Z" fill="#485F84" style="stroke-width: 1;"/>
  <path d="M 58.329 101.103 C 58.329 99.177 58.512 97.615 58.737 97.615 L 69.891 97.615 C 70.116 97.615 70.299 99.177 70.299 101.103 L 70.299 103.428 C 70.299 105.353 70.116 106.915 69.891 106.915 L 58.737 106.915 C 58.512 106.915 58.329 105.353 58.329 103.428 L 58.329 101.103 Z" fill="#485F84" style="stroke-width: 1;"/>
  <path d="M 78.829 85.536 C 78.829 83.609 79.012 82.049 79.236 82.049 L 90.391 82.049 C 90.615 82.049 90.798 83.609 90.798 85.536 L 90.798 87.861 C 90.798 89.787 90.615 91.349 90.391 91.349 L 79.236 91.349 C 79.012 91.349 78.829 89.787 78.829 87.861 L 78.829 85.536 Z" fill="#485F84" style="stroke-width: 1;"/>
  <path d="M 98.844 85.536 C 98.844 83.609 99.028 82.049 99.252 82.049 L 110.406 82.049 C 110.631 82.049 110.814 83.609 110.814 85.536 L 110.814 87.861 C 110.814 89.787 110.631 91.349 110.406 91.349 L 99.252 91.349 C 99.028 91.349 98.844 89.787 98.844 87.861 L 98.844 85.536 Z" fill="#485F84" style="stroke-width: 1;"/>
  <path d="M 17.814 69.968 C 17.814 68.042 17.997 66.48 18.222 66.48 L 29.376 66.48 C 29.6 66.48 29.784 68.042 29.784 69.968 L 29.784 72.293 C 29.784 74.221 29.6 75.78 29.376 75.78 L 18.222 75.78 C 17.997 75.78 17.814 74.221 17.814 72.293 L 17.814 69.968 Z" fill="#485F84" style="stroke-width: 1;"/>
  <path d="M 37.7 54.401 C 37.7 52.476 37.877 50.914 38.094 50.914 L 48.875 50.914 C 49.093 50.914 49.27 52.476 49.27 54.401 L 49.27 56.726 C 49.27 58.652 49.093 60.214 48.875 60.214 L 38.094 60.214 C 37.877 60.214 37.7 58.652 37.7 56.726 L 37.7 54.401 Z" fill="#485F84" style="stroke-width: 1;"/>
  <path d="M 37.365 69.968 C 37.365 68.042 37.548 66.48 37.775 66.48 L 48.927 66.48 C 49.153 66.48 49.337 68.042 49.337 69.968 L 49.337 72.293 C 49.337 74.221 49.153 75.78 48.927 75.78 L 37.775 75.78 C 37.548 75.78 37.365 74.221 37.365 72.293 L 37.365 69.968 Z" fill="#485F84" style="stroke-width: 1;"/>
  <path d="M 58.033 54.401 C 58.033 52.476 58.213 50.914 58.439 50.914 L 69.527 50.914 C 69.752 50.914 69.934 52.476 69.934 54.401 L 69.934 56.726 C 69.934 58.652 69.752 60.214 69.527 60.214 L 58.439 60.214 C 58.213 60.214 58.033 58.652 58.033 56.726 L 58.033 54.401 Z" fill="#485F84" style="stroke-width: 1;"/>
  <path d="M 58.329 69.968 C 58.329 68.042 58.512 66.48 58.737 66.48 L 69.891 66.48 C 70.116 66.48 70.299 68.042 70.299 69.968 L 70.299 72.293 C 70.299 74.221 70.116 75.78 69.891 75.78 L 58.737 75.78 C 58.512 75.78 58.329 74.221 58.329 72.293 L 58.329 69.968 Z" fill="#485F84" style="stroke-width: 1;"/>
  <path d="M 78.864 54.401 C 78.864 52.476 79.044 50.914 79.27 50.914 L 90.358 50.914 C 90.583 50.914 90.763 52.476 90.763 54.401 L 90.763 56.726 C 90.763 58.652 90.583 60.214 90.358 60.214 L 79.27 60.214 C 79.044 60.214 78.864 58.652 78.864 56.726 L 78.864 54.401 Z" fill="#485F84" style="stroke-width: 1;"/>
  <path d="M 78.828 69.968 C 78.828 68.042 79.012 66.48 79.238 66.48 L 90.39 66.48 C 90.617 66.48 90.798 68.042 90.798 69.968 L 90.798 72.293 C 90.798 74.221 90.617 75.78 90.39 75.78 L 79.238 75.78 C 79.012 75.78 78.828 74.221 78.828 72.293 L 78.828 69.968 Z" fill="#485F84" style="stroke-width: 1;"/>
  <path d="M 98.695 54.401 C 98.695 52.476 98.879 50.914 99.102 50.914 L 110.192 50.914 C 110.415 50.914 110.598 52.476 110.598 54.401 L 110.598 56.726 C 110.598 58.652 110.415 60.214 110.192 60.214 L 99.102 60.214 C 98.879 60.214 98.695 58.652 98.695 56.726 L 98.695 54.401 Z" fill="#485F84" style="stroke-width: 1;"/>
  <path d="M 98.844 69.968 C 98.844 68.042 99.028 66.48 99.252 66.48 L 110.406 66.48 C 110.631 66.48 110.814 68.042 110.814 69.968 L 110.814 72.293 C 110.814 74.221 110.631 75.78 110.406 75.78 L 99.252 75.78 C 99.028 75.78 98.844 74.221 98.844 72.293 L 98.844 69.968 Z" fill="#485F84" style="stroke-width: 1;"/>
  <defs>
    <linearGradient id="paint0_linear_1928_409" x1="12" y1="116" x2="116" y2="12" gradientUnits="userSpaceOnUse">
      <stop stop-color="#9E9E9E"/>
      <stop offset="1" stop-color="#BEBEBE"/>
    </linearGradient>
    <linearGradient gradientUnits="userSpaceOnUse" x1="64" y1="12" x2="64" y2="33.554" id="gradient-1" gradientTransform="matrix(0.959552, 0, 0, 1.191298, 2.588869, 0.280387)">
      <stop offset="0" style="stop-color: rgb(28.235% 37.255% 51.765%)"/>
      <stop offset="1" style="stop-color: rgb(12.855% 22.81% 36.171%)"/>
    </linearGradient>
  </defs>
  <g transform="matrix(1, 0, 0, 1, -7, -0.654251)">
    <ellipse style="stroke: rgb(37, 62, 96); fill: rgb(35, 60, 94);" cx="36.949" cy="26.591" rx="6.98" ry="6.98"/>
    <rect x="32.899" y="7.132" width="8.1" height="23.396" style="stroke: rgb(173, 173, 173); fill: rgb(72, 95, 132); stroke-width: 2px;" rx="3" ry="3"/>
  </g>
  <g transform="matrix(1, 0, 0, 1, -38.40635, -0.607752)">
    <ellipse style="stroke-width: 1; stroke: rgb(37, 62, 96); fill: rgb(37, 62, 96);" cx="90.5" cy="26.498" rx="6.98" ry="6.98"/>
    <rect x="86.45" y="7.132" width="8.1" height="23.396" style="stroke: rgb(172, 172, 172); fill: rgb(72, 95, 132); stroke-width: 2px;" rx="3" ry="3"/>
  </g>
  <g transform="matrix(1, 0, 0, 1, 5.882938, -0.607752)">
    <ellipse style="stroke-width: 1; stroke: rgb(37, 62, 96); fill: rgb(37, 62, 96);" cx="90.5" cy="26.498" rx="6.98" ry="6.98"/>
    <rect x="86.45" y="7.132" width="8.1" height="23.396" style="stroke: rgb(172, 172, 172); fill: rgb(72, 95, 132); stroke-width: 2px;" rx="3" ry="3"/>
  </g>
  <g transform="matrix(1, 0, 0, 1, -16.261706, -0.607752)">
    <ellipse style="stroke-width: 1; stroke: rgb(37, 62, 96); fill: rgb(37, 62, 96);" cx="90.5" cy="26.498" rx="6.98" ry="6.98"/>
    <rect x="86.45" y="7.132" width="8.1" height="23.396" style="stroke: rgb(172, 172, 172); fill: rgb(72, 95, 132); stroke-width: 2px;" rx="3" ry="3"/>
  </g>
</svg>