<?xml version="1.0" encoding="utf-8"?>
<svg width="128" height="128" viewBox="0 0 128 128" fill="none" xmlns="http://www.w3.org/2000/svg">
  <path d="M12 20C12 15.5817 15.5817 12 20 12H108C112.418 12 116 15.5817 116 20V108C116 112.418 112.418 116 108 116H20C15.5817 116 12 112.418 12 108V20Z" fill="url(#paint0_linear_1928_409)"/>
  <path d="M 12 16.312 C 12 13.931 14.117 12 16.728 12 L 111.272 12 C 113.883 12 116 13.931 116 16.312 L 116 29.244 C 116 31.625 113.883 33.554 111.272 33.554 L 16.728 33.554 C 14.117 33.554 12 31.625 12 29.244 L 12 16.312 Z" style="fill: url(&quot;#gradient-1&quot;);"/>
  <path d="M 28.814 80.696 C 28.814 79.039 28.972 77.696 29.167 77.696 L 38.806 77.696 C 39.001 77.696 39.159 79.039 39.159 80.696 L 39.159 82.696 C 39.159 84.353 39.001 85.696 38.806 85.696 L 29.167 85.696 C 28.972 85.696 28.814 84.353 28.814 82.696 L 28.814 80.696 Z" fill="#485F84" style="stroke-width: 1;"/>
  <path d="M 28.814 94.087 C 28.814 92.43 28.972 91.087 29.167 91.087 L 38.806 91.087 C 39.001 91.087 39.159 92.43 39.159 94.087 L 39.159 96.087 C 39.159 97.744 39.001 99.087 38.806 99.087 L 29.167 99.087 C 28.972 99.087 28.814 97.744 28.814 96.087 L 28.814 94.087 Z" fill="#485F84" style="stroke-width: 1;"/>
  <path d="M 43.821 80.696 C 43.821 79.039 43.979 77.696 44.174 77.696 L 53.813 77.696 C 54.008 77.696 54.166 79.039 54.166 80.696 L 54.166 82.696 C 54.166 84.353 54.008 85.696 53.813 85.696 L 44.174 85.696 C 43.979 85.696 43.821 84.353 43.821 82.696 L 43.821 80.696 Z" fill="#485F84" style="stroke-width: 1;"/>
  <path d="M 43.821 94.087 C 43.821 92.43 43.979 91.087 44.174 91.087 L 53.813 91.087 C 54.008 91.087 54.166 92.43 54.166 94.087 L 54.166 96.087 C 54.166 97.744 54.008 99.087 53.813 99.087 L 44.174 99.087 C 43.979 99.087 43.821 97.744 43.821 96.087 L 43.821 94.087 Z" fill="#485F84" style="stroke-width: 1;"/>
  <path d="M 58.828 80.696 C 58.828 79.039 58.986 77.696 59.181 77.696 L 68.82 77.696 C 69.015 77.696 69.173 79.039 69.173 80.696 L 69.173 82.696 C 69.173 84.353 69.015 85.696 68.82 85.696 L 59.181 85.696 C 58.986 85.696 58.828 84.353 58.828 82.696 L 58.828 80.696 Z" fill="#485F84" style="stroke-width: 1;"/>
  <path d="M 58.828 94.087 C 58.828 92.43 58.986 91.087 59.181 91.087 L 68.82 91.087 C 69.015 91.087 69.173 92.43 69.173 94.087 L 69.173 96.087 C 69.173 97.744 69.015 99.087 68.82 99.087 L 59.181 99.087 C 58.986 99.087 58.828 97.744 58.828 96.087 L 58.828 94.087 Z" fill="#485F84" style="stroke-width: 1;"/>
  <path d="M 73.835 80.696 C 73.835 79.039 73.993 77.696 74.188 77.696 L 83.827 77.696 C 84.022 77.696 84.18 79.039 84.18 80.696 L 84.18 82.696 C 84.18 84.353 84.022 85.696 83.827 85.696 L 74.188 85.696 C 73.993 85.696 73.835 84.353 73.835 82.696 L 73.835 80.696 Z" fill="#485F84" style="stroke-width: 1;"/>
  <path d="M 73.835 94.087 C 73.835 92.43 73.993 91.087 74.188 91.087 L 83.827 91.087 C 84.022 91.087 84.18 92.43 84.18 94.087 L 84.18 96.087 C 84.18 97.744 84.022 99.087 83.827 99.087 L 74.188 99.087 C 73.993 99.087 73.835 97.744 73.835 96.087 L 73.835 94.087 Z" fill="#485F84" style="stroke-width: 1;"/>
  <path d="M 88.842 80.696 C 88.842 79.039 89 77.696 89.195 77.696 L 98.834 77.696 C 99.029 77.696 99.187 79.039 99.187 80.696 L 99.187 82.696 C 99.187 84.353 99.029 85.696 98.834 85.696 L 89.195 85.696 C 89 85.696 88.842 84.353 88.842 82.696 L 88.842 80.696 Z" fill="#485F84" style="stroke-width: 1;"/>
  <path d="M 88.842 94.087 C 88.842 92.43 89 91.087 89.195 91.087 L 98.834 91.087 C 99.029 91.087 99.187 92.43 99.187 94.087 L 99.187 96.087 C 99.187 97.744 99.029 99.087 98.834 99.087 L 89.195 99.087 C 89 99.087 88.842 97.744 88.842 96.087 L 88.842 94.087 Z" fill="#485F84" style="stroke-width: 1;"/>
  <path d="M 28.814 53.914 C 28.814 52.257 28.972 50.914 29.167 50.914 L 38.806 50.914 C 39.001 50.914 39.159 52.257 39.159 53.914 L 39.159 55.914 C 39.159 57.571 39.001 58.914 38.806 58.914 L 29.167 58.914 C 28.972 58.914 28.814 57.571 28.814 55.914 L 28.814 53.914 Z" fill="#485F84" style="stroke-width: 1;"/>
  <path d="M 28.814 67.305 C 28.814 65.648 28.972 64.305 29.167 64.305 L 38.806 64.305 C 39.001 64.305 39.159 65.648 39.159 67.305 L 39.159 69.305 C 39.159 70.962 39.001 72.305 38.806 72.305 L 29.167 72.305 C 28.972 72.305 28.814 70.962 28.814 69.305 L 28.814 67.305 Z" fill="#485F84" style="stroke-width: 1;"/>
  <path d="M 43.821 53.914 C 43.821 52.257 43.979 50.914 44.174 50.914 L 53.813 50.914 C 54.008 50.914 54.166 52.257 54.166 53.914 L 54.166 55.914 C 54.166 57.571 54.008 58.914 53.813 58.914 L 44.174 58.914 C 43.979 58.914 43.821 57.571 43.821 55.914 L 43.821 53.914 Z" fill="#485F84" style="stroke-width: 1;"/>
  <path d="M 43.821 67.305 C 43.821 65.648 43.979 64.305 44.174 64.305 L 53.813 64.305 C 54.008 64.305 54.166 65.648 54.166 67.305 L 54.166 69.305 C 54.166 70.962 54.008 72.305 53.813 72.305 L 44.174 72.305 C 43.979 72.305 43.821 70.962 43.821 69.305 L 43.821 67.305 Z" fill="#485F84" style="stroke-width: 1;"/>
  <path d="M 58.828 53.914 C 58.828 52.257 58.986 50.914 59.181 50.914 L 68.82 50.914 C 69.015 50.914 69.173 52.257 69.173 53.914 L 69.173 55.914 C 69.173 57.571 69.015 58.914 68.82 58.914 L 59.181 58.914 C 58.986 58.914 58.828 57.571 58.828 55.914 L 58.828 53.914 Z" fill="#485F84" style="stroke-width: 1;"/>
  <path d="M 58.828 67.305 C 58.828 65.648 58.986 64.305 59.181 64.305 L 68.82 64.305 C 69.015 64.305 69.173 65.648 69.173 67.305 L 69.173 69.305 C 69.173 70.962 69.015 72.305 68.82 72.305 L 59.181 72.305 C 58.986 72.305 58.828 70.962 58.828 69.305 L 58.828 67.305 Z" fill="#485F84" style="stroke-width: 1;"/>
  <path d="M 73.835 53.914 C 73.835 52.257 73.993 50.914 74.188 50.914 L 83.827 50.914 C 84.022 50.914 84.18 52.257 84.18 53.914 L 84.18 55.914 C 84.18 57.571 84.022 58.914 83.827 58.914 L 74.188 58.914 C 73.993 58.914 73.835 57.571 73.835 55.914 L 73.835 53.914 Z" fill="#485F84" style="stroke-width: 1;"/>
  <path d="M 73.835 67.305 C 73.835 65.648 73.993 64.305 74.188 64.305 L 83.827 64.305 C 84.022 64.305 84.18 65.648 84.18 67.305 L 84.18 69.305 C 84.18 70.962 84.022 72.305 83.827 72.305 L 74.188 72.305 C 73.993 72.305 73.835 70.962 73.835 69.305 L 73.835 67.305 Z" fill="#485F84" style="stroke-width: 1;"/>
  <path d="M 88.842 53.914 C 88.842 52.257 89 50.914 89.195 50.914 L 98.834 50.914 C 99.029 50.914 99.187 52.257 99.187 53.914 L 99.187 55.914 C 99.187 57.571 99.029 58.914 98.834 58.914 L 89.195 58.914 C 89 58.914 88.842 57.571 88.842 55.914 L 88.842 53.914 Z" fill="#485F84" style="stroke-width: 1;"/>
  <path d="M 88.842 67.305 C 88.842 65.648 89 64.305 89.195 64.305 L 98.834 64.305 C 99.029 64.305 99.187 65.648 99.187 67.305 L 99.187 69.305 C 99.187 70.962 99.029 72.305 98.834 72.305 L 89.195 72.305 C 89 72.305 88.842 70.962 88.842 69.305 L 88.842 67.305 Z" fill="#485F84" style="stroke-width: 1;"/>
  <defs>
    <linearGradient id="paint0_linear_1928_409" x1="12" y1="116" x2="116" y2="12" gradientUnits="userSpaceOnUse">
      <stop stop-color="#9E9E9E"/>
      <stop offset="1" stop-color="#BEBEBE"/>
    </linearGradient>
    <linearGradient gradientUnits="userSpaceOnUse" x1="64" y1="12" x2="64" y2="33.554" id="gradient-1">
      <stop offset="0" style="stop-color: rgb(28.235% 37.255% 51.765%)"/>
      <stop offset="1" style="stop-color: rgb(12.855% 22.81% 36.171%)"/>
    </linearGradient>
  </defs>
</svg>