<?xml version="1.0" encoding="utf-8"?>
<svg width="128" height="128" viewBox="0 0 128 128" fill="none" xmlns="http://www.w3.org/2000/svg">
  <path d="M12 20C12 15.5817 15.5817 12 20 12H108C112.418 12 116 15.5817 116 20V108C116 112.418 112.418 116 108 116H20C15.5817 116 12 112.418 12 108V20Z" fill="url(#paint0_linear_1928_409)"/>
  <path d="M 12 16.312 C 12 13.931 14.117 12 16.728 12 L 111.272 12 C 113.883 12 116 13.931 116 16.312 L 116 29.244 C 116 31.625 113.883 33.554 111.272 33.554 L 16.728 33.554 C 14.117 33.554 12 31.625 12 29.244 L 12 16.312 Z" fill="#485F84" style=""/>
  <path d="M 21.536 90.819 C 21.536 89.162 21.694 87.819 21.889 87.819 L 31.528 87.819 C 31.723 87.819 31.881 89.162 31.881 90.819 L 31.881 92.819 C 31.881 94.476 31.723 95.819 31.528 95.819 L 21.889 95.819 C 21.694 95.819 21.536 94.476 21.536 92.819 L 21.536 90.819 Z" fill="#485F84" style=""/>
  <defs>
    <linearGradient id="paint0_linear_1928_409" x1="12" y1="116" x2="116" y2="12" gradientUnits="userSpaceOnUse">
      <stop stop-color="#9E9E9E"/>
      <stop offset="1" stop-color="#BEBEBE"/>
    </linearGradient>
  </defs>
  <path d="M 21.536 103.798 C 21.536 102.141 21.694 100.798 21.889 100.798 L 31.528 100.798 C 31.723 100.798 31.881 102.141 31.881 103.798 L 31.881 105.798 C 31.881 107.455 31.723 108.798 31.528 108.798 L 21.889 108.798 C 21.694 108.798 21.536 107.455 21.536 105.798 L 21.536 103.798 Z" fill="#485F84" style="stroke-width: 1;"/>
  <path d="M 36.543 90.819 C 36.543 89.162 36.701 87.819 36.896 87.819 L 46.535 87.819 C 46.73 87.819 46.888 89.162 46.888 90.819 L 46.888 92.819 C 46.888 94.476 46.73 95.819 46.535 95.819 L 36.896 95.819 C 36.701 95.819 36.543 94.476 36.543 92.819 L 36.543 90.819 Z" fill="#485F84" style="stroke-width: 1;"/>
  <path d="M 36.543 103.798 C 36.543 102.141 36.701 100.798 36.896 100.798 L 46.535 100.798 C 46.73 100.798 46.888 102.141 46.888 103.798 L 46.888 105.798 C 46.888 107.455 46.73 108.798 46.535 108.798 L 36.896 108.798 C 36.701 108.798 36.543 107.455 36.543 105.798 L 36.543 103.798 Z" fill="#485F84" style="stroke-width: 1;"/>
  <path d="M 51.55 90.819 C 51.55 89.162 51.708 87.819 51.903 87.819 L 61.542 87.819 C 61.737 87.819 61.895 89.162 61.895 90.819 L 61.895 92.819 C 61.895 94.476 61.737 95.819 61.542 95.819 L 51.903 95.819 C 51.708 95.819 51.55 94.476 51.55 92.819 L 51.55 90.819 Z" fill="#485F84" style="stroke-width: 1;"/>
  <path d="M 51.55 103.798 C 51.55 102.141 51.708 100.798 51.903 100.798 L 61.542 100.798 C 61.737 100.798 61.895 102.141 61.895 103.798 L 61.895 105.798 C 61.895 107.455 61.737 108.798 61.542 108.798 L 51.903 108.798 C 51.708 108.798 51.55 107.455 51.55 105.798 L 51.55 103.798 Z" fill="#485F84" style="stroke-width: 1;"/>
  <path d="M 66.557 90.819 C 66.557 89.162 66.715 87.819 66.91 87.819 L 76.549 87.819 C 76.744 87.819 76.902 89.162 76.902 90.819 L 76.902 92.819 C 76.902 94.476 76.744 95.819 76.549 95.819 L 66.91 95.819 C 66.715 95.819 66.557 94.476 66.557 92.819 L 66.557 90.819 Z" fill="#485F84" style="stroke-width: 1;"/>
  <path d="M 66.557 103.798 C 66.557 102.141 66.715 100.798 66.91 100.798 L 76.549 100.798 C 76.744 100.798 76.902 102.141 76.902 103.798 L 76.902 105.798 C 76.902 107.455 76.744 108.798 76.549 108.798 L 66.91 108.798 C 66.715 108.798 66.557 107.455 66.557 105.798 L 66.557 103.798 Z" fill="#485F84" style="stroke-width: 1;"/>
  <path d="M 81.564 90.819 C 81.564 89.162 81.722 87.819 81.917 87.819 L 91.556 87.819 C 91.751 87.819 91.909 89.162 91.909 90.819 L 91.909 92.819 C 91.909 94.476 91.751 95.819 91.556 95.819 L 81.917 95.819 C 81.722 95.819 81.564 94.476 81.564 92.819 L 81.564 90.819 Z" fill="#485F84" style="stroke-width: 1;"/>
  <path d="M 81.564 103.798 C 81.564 102.141 81.722 100.798 81.917 100.798 L 91.556 100.798 C 91.751 100.798 91.909 102.141 91.909 103.798 L 91.909 105.798 C 91.909 107.455 91.751 108.798 91.556 108.798 L 81.917 108.798 C 81.722 108.798 81.564 107.455 81.564 105.798 L 81.564 103.798 Z" fill="#485F84" style="stroke-width: 1;"/>
  <path d="M 96.572 90.819 C 96.572 89.162 96.73 87.819 96.925 87.819 L 106.564 87.819 C 106.759 87.819 106.917 89.162 106.917 90.819 L 106.917 92.819 C 106.917 94.476 106.759 95.819 106.564 95.819 L 96.925 95.819 C 96.73 95.819 96.572 94.476 96.572 92.819 L 96.572 90.819 Z" fill="#485F84" style="stroke-width: 1;"/>
  <path d="M 96.572 103.798 C 96.572 102.141 96.73 100.798 96.925 100.798 L 106.564 100.798 C 106.759 100.798 106.917 102.141 106.917 103.798 L 106.917 105.798 C 106.917 107.455 106.759 108.798 106.564 108.798 L 96.925 108.798 C 96.73 108.798 96.572 107.455 96.572 105.798 L 96.572 103.798 Z" fill="#485F84" style="stroke-width: 1;"/>
  <path d="M 40.825 55.827 Q 41.146 44.56 51.542 44.56 Q 56.168 44.56 59.053 47.216 Q 61.939 49.873 61.939 54.086 Q 61.939 60.132 55.069 63.887 L 50.489 66.361 Q 47.512 67.964 46.229 69.475 Q 44.947 70.986 44.626 73.047 L 61.71 73.047 L 61.71 77.032 L 40.092 77.032 Q 40.367 71.673 42.245 68.765 Q 44.123 65.857 49.206 62.971 L 53.42 60.59 Q 57.817 58.071 57.817 54.178 Q 57.817 51.567 55.985 49.827 Q 54.153 48.086 51.405 48.086 Q 45.313 48.086 44.855 55.827 Z M 81.907 59.949 Q 87.495 62.605 87.495 68.055 Q 87.495 72.498 84.449 75.292 Q 81.403 78.085 76.594 78.085 Q 71.785 78.085 68.739 75.269 Q 65.694 72.452 65.694 68.009 Q 65.694 62.605 71.236 59.949 Q 68.762 58.391 67.801 56.926 Q 66.839 55.46 66.839 53.216 Q 66.839 49.415 69.564 46.987 Q 72.289 44.56 76.594 44.56 Q 80.899 44.56 83.624 46.987 Q 86.35 49.415 86.35 53.216 Q 86.35 55.506 85.388 56.972 Q 84.426 58.437 81.907 59.949 Z M 80.693 49.529 Q 80.693 49.529 79.926 48.831 Q 79.159 48.132 76.594 48.132 Q 74.029 48.132 72.495 49.529 Q 70.961 50.926 70.961 53.262 Q 70.961 55.552 72.495 56.949 Q 74.029 58.346 76.594 58.346 Q 79.113 58.346 80.67 56.972 Q 82.228 55.598 82.228 53.308 Q 82.228 50.926 80.693 49.529 Z M 81.495 63.498 Q 81.495 63.498 80.556 62.616 Q 79.617 61.735 76.594 61.735 Q 73.571 61.735 71.694 63.498 Q 69.816 65.261 69.816 68.101 Q 69.816 70.941 71.671 72.727 Q 73.526 74.513 76.503 74.513 Q 79.571 74.513 81.472 72.75 Q 83.373 70.986 83.373 68.101 Q 83.373 65.261 81.495 63.498 Z" style="fill: rgb(51, 51, 51); text-wrap-mode: nowrap;"/>
  <circle cx="26.713" cy="16.568" r="3.5" stroke-width="2" style="stroke-width: 2; stroke: rgb(181, 181, 181);" fill="none"/>
  <circle cx="63.623" cy="16.568" r="3.5" stroke-width="2" style="stroke-width: 2; stroke: rgb(181, 181, 181);" fill="none"/>
  <circle cx="100.533" cy="16.164" r="3.5" stroke-width="2" style="stroke-width: 2; stroke: rgb(181, 181, 181);" fill="none"/>
</svg>