<?xml version="1.0" encoding="utf-8"?>
<svg width="128" height="128" viewBox="0 0 128 128" fill="none" xmlns="http://www.w3.org/2000/svg">
  <path d="M12 20C12 15.5817 15.5817 12 20 12H108C112.418 12 116 15.5817 116 20V108C116 112.418 112.418 116 108 116H20C15.5817 116 12 112.418 12 108V20Z" fill="url(#paint0_linear_1928_409)"/>
  <path d="M 12 16.312 C 12 13.931 14.117 12 16.728 12 L 111.272 12 C 113.883 12 116 13.931 116 16.312 L 116 29.244 C 116 31.625 113.883 33.554 111.272 33.554 L 16.728 33.554 C 14.117 33.554 12 31.625 12 29.244 L 12 16.312 Z" fill="#485F84" style=""/>
  <path d="M 21.536 90.819 C 21.536 89.162 21.694 87.819 21.889 87.819 L 31.528 87.819 C 31.723 87.819 31.881 89.162 31.881 90.819 L 31.881 92.819 C 31.881 94.476 31.723 95.819 31.528 95.819 L 21.889 95.819 C 21.694 95.819 21.536 94.476 21.536 92.819 L 21.536 90.819 Z" fill="#485F84" style=""/>
  <defs>
    <linearGradient id="paint0_linear_1928_409" x1="12" y1="116" x2="116" y2="12" gradientUnits="userSpaceOnUse">
      <stop stop-color="#9E9E9E"/>
      <stop offset="1" stop-color="#BEBEBE"/>
    </linearGradient>
  </defs>
  <path d="M 21.536 103.798 C 21.536 102.141 21.694 100.798 21.889 100.798 L 31.528 100.798 C 31.723 100.798 31.881 102.141 31.881 103.798 L 31.881 105.798 C 31.881 107.455 31.723 108.798 31.528 108.798 L 21.889 108.798 C 21.694 108.798 21.536 107.455 21.536 105.798 L 21.536 103.798 Z" fill="#485F84" style="stroke-width: 1;"/>
  <path d="M 36.543 90.819 C 36.543 89.162 36.701 87.819 36.896 87.819 L 46.535 87.819 C 46.73 87.819 46.888 89.162 46.888 90.819 L 46.888 92.819 C 46.888 94.476 46.73 95.819 46.535 95.819 L 36.896 95.819 C 36.701 95.819 36.543 94.476 36.543 92.819 L 36.543 90.819 Z" fill="#485F84" style="stroke-width: 1;"/>
  <path d="M 36.543 103.798 C 36.543 102.141 36.701 100.798 36.896 100.798 L 46.535 100.798 C 46.73 100.798 46.888 102.141 46.888 103.798 L 46.888 105.798 C 46.888 107.455 46.73 108.798 46.535 108.798 L 36.896 108.798 C 36.701 108.798 36.543 107.455 36.543 105.798 L 36.543 103.798 Z" fill="#485F84" style="stroke-width: 1;"/>
  <path d="M 51.55 90.819 C 51.55 89.162 51.708 87.819 51.903 87.819 L 61.542 87.819 C 61.737 87.819 61.895 89.162 61.895 90.819 L 61.895 92.819 C 61.895 94.476 61.737 95.819 61.542 95.819 L 51.903 95.819 C 51.708 95.819 51.55 94.476 51.55 92.819 L 51.55 90.819 Z" fill="#485F84" style="stroke-width: 1;"/>
  <path d="M 51.55 103.798 C 51.55 102.141 51.708 100.798 51.903 100.798 L 61.542 100.798 C 61.737 100.798 61.895 102.141 61.895 103.798 L 61.895 105.798 C 61.895 107.455 61.737 108.798 61.542 108.798 L 51.903 108.798 C 51.708 108.798 51.55 107.455 51.55 105.798 L 51.55 103.798 Z" fill="#485F84" style="stroke-width: 1;"/>
  <path d="M 66.557 90.819 C 66.557 89.162 66.715 87.819 66.91 87.819 L 76.549 87.819 C 76.744 87.819 76.902 89.162 76.902 90.819 L 76.902 92.819 C 76.902 94.476 76.744 95.819 76.549 95.819 L 66.91 95.819 C 66.715 95.819 66.557 94.476 66.557 92.819 L 66.557 90.819 Z" fill="#485F84" style="stroke-width: 1;"/>
  <path d="M 66.557 103.798 C 66.557 102.141 66.715 100.798 66.91 100.798 L 76.549 100.798 C 76.744 100.798 76.902 102.141 76.902 103.798 L 76.902 105.798 C 76.902 107.455 76.744 108.798 76.549 108.798 L 66.91 108.798 C 66.715 108.798 66.557 107.455 66.557 105.798 L 66.557 103.798 Z" fill="#485F84" style="stroke-width: 1;"/>
  <path d="M 81.564 90.819 C 81.564 89.162 81.722 87.819 81.917 87.819 L 91.556 87.819 C 91.751 87.819 91.909 89.162 91.909 90.819 L 91.909 92.819 C 91.909 94.476 91.751 95.819 91.556 95.819 L 81.917 95.819 C 81.722 95.819 81.564 94.476 81.564 92.819 L 81.564 90.819 Z" fill="#485F84" style="stroke-width: 1;"/>
  <path d="M 81.564 103.798 C 81.564 102.141 81.722 100.798 81.917 100.798 L 91.556 100.798 C 91.751 100.798 91.909 102.141 91.909 103.798 L 91.909 105.798 C 91.909 107.455 91.751 108.798 91.556 108.798 L 81.917 108.798 C 81.722 108.798 81.564 107.455 81.564 105.798 L 81.564 103.798 Z" fill="#485F84" style="stroke-width: 1;"/>
  <path d="M 96.572 90.819 C 96.572 89.162 96.73 87.819 96.925 87.819 L 106.564 87.819 C 106.759 87.819 106.917 89.162 106.917 90.819 L 106.917 92.819 C 106.917 94.476 106.759 95.819 106.564 95.819 L 96.925 95.819 C 96.73 95.819 96.572 94.476 96.572 92.819 L 96.572 90.819 Z" fill="#485F84" style="stroke-width: 1;"/>
  <path d="M 96.572 103.798 C 96.572 102.141 96.73 100.798 96.925 100.798 L 106.564 100.798 C 106.759 100.798 106.917 102.141 106.917 103.798 L 106.917 105.798 C 106.917 107.455 106.759 108.798 106.564 108.798 L 96.925 108.798 C 96.73 108.798 96.572 107.455 96.572 105.798 L 96.572 103.798 Z" fill="#485F84" style="stroke-width: 1;"/>
  <text style="fill: rgb(51, 51, 51); font-family: FreeSans; font-size: 45.8px; white-space: pre;" x="38.535" y="77.032">28</text>
  <circle cx="26.713" cy="16.568" r="3.5" stroke-width="2" style="stroke-width: 2; stroke: rgb(181, 181, 181);" fill="none"/>
  <circle cx="63.623" cy="16.568" r="3.5" stroke-width="2" style="stroke-width: 2; stroke: rgb(181, 181, 181);" fill="none"/>
  <circle cx="100.533" cy="16.164" r="3.5" stroke-width="2" style="stroke-width: 2; stroke: rgb(181, 181, 181);" fill="none"/>
</svg>